<svg width="573" height="362" viewBox="0 0 573 362" fill="none" xmlns="http://www.w3.org/2000/svg">
<g clip-path="url(#clip0_0_1)">
<path d="M418.012 88C418.012 122.668 363.822 224.907 332.752 280.678C330.644 284.462 327.564 287.614 323.83 289.809C320.096 292.003 315.843 293.16 311.512 293.16C307.181 293.16 302.928 292.003 299.194 289.809C295.46 287.614 292.38 284.462 290.272 280.678C259.202 224.907 205.012 122.668 205.012 88C205.012 39.3989 252.694 0 311.512 0C370.33 0 418.012 39.3989 418.012 88Z" fill="#B2FBFB"/>
<path opacity="0.4" d="M312.012 145C344.044 145 370.012 119.033 370.012 87C370.012 54.9675 344.044 29 312.012 29C279.979 29 254.012 54.9675 254.012 87C254.012 119.033 279.979 145 312.012 145Z" fill="#514644"/>
<path d="M69.9817 139.479C89.1679 139.479 104.721 123.926 104.721 104.74C104.721 85.5535 89.1679 70 69.9817 70C50.7955 70 35.2421 85.5535 35.2421 104.74C35.2421 123.926 50.7955 139.479 69.9817 139.479Z" fill="#B2FBFB"/>
<path opacity="0.4" d="M62.9084 135.633C64.6764 124.738 57.2773 114.472 46.3819 112.704C35.4865 110.936 25.2207 118.335 23.4526 129.23C21.6845 140.126 29.0837 150.392 39.9791 152.16C50.8745 153.928 61.1403 146.529 62.9084 135.633Z" fill="#514644"/>
<path d="M510.77 235.53C353.38 176.53 161.42 234.05 50.5902 351.71C49.9602 352.37 49.3302 353.04 48.7202 353.71H47.0302C47.6102 353.04 48.2102 352.37 48.8002 351.71C161.93 225.1 351.34 174.64 510.77 235.53Z" fill="#3F3D56"/>
<path d="M553.78 255.1C539.868 247.681 525.503 241.144 510.77 235.53C525.542 241.052 539.913 247.591 553.78 255.1V255.1Z" fill="#3F3D56"/>
<path opacity="0.4" d="M467.641 196.235C479.747 196.235 489.561 186.421 489.561 174.315C489.561 162.209 479.747 152.395 467.641 152.395C455.534 152.395 445.72 162.209 445.72 174.315C445.72 186.421 455.534 196.235 467.641 196.235Z" fill="#514644"/>
<path d="M470.081 342.921C471.775 349.183 477.578 353.061 477.578 353.061C477.578 353.061 480.633 346.787 478.939 340.525C477.245 334.263 471.443 330.385 471.443 330.385C471.443 330.385 468.388 336.659 470.081 342.921Z" fill="#3F3D56"/>
<path d="M472.571 341.575C477.219 346.1 477.787 353.056 477.787 353.056C477.787 353.056 470.818 352.675 466.17 348.151C461.522 343.626 460.954 336.67 460.954 336.67C460.954 336.67 467.922 337.05 472.571 341.575Z" fill="#514644"/>
<path d="M268.588 295.852L264.451 288.957L303.065 255.859C331.612 242.118 366.023 246.083 402.359 255.859V265.512L366.503 304.127L325.13 312.401L268.588 295.852Z" fill="#3F3D56"/>
<path d="M419.451 275.282C426.308 267.654 427.261 260.402 419.451 253.705H406.451V260.509L402.359 255.859L369.261 288.957L363.744 294.473L356.849 322.055L369.261 352.394H432.698V290.336L419.451 275.282Z" fill="#CCCCCC"/>
<path d="M264.451 288.956H369.261V352.394H264.451C251.771 338.675 258.358 313.671 264.451 288.956Z" fill="#F2F2F2"/>
<path d="M354.78 308.953H332.715V328.26H354.78V308.953Z" fill="#3F3D56"/>
<path d="M323.751 308.263H304.444V352.394H323.751V308.263Z" fill="#CCCCCC"/>
<path d="M282.379 315.159V308.264H274.105V315.159H281.689H282.379Z" fill="#3F3D56"/>
<path d="M281.689 320.675H274.105V327.571H282.379V320.675H281.689Z" fill="#3F3D56"/>
<path d="M296.17 308.263H287.895V315.159H296.17V308.263Z" fill="#3F3D56"/>
<path d="M296.17 320.675H287.895V327.57H296.17V320.675Z" fill="#3F3D56"/>
<path d="M398.911 315.849V308.953H390.636V315.849H398.221H398.911Z" fill="#3F3D56"/>
<path d="M398.221 321.365H390.636V328.26H398.911V321.365H398.221Z" fill="#3F3D56"/>
<path d="M412.702 308.953H404.427V315.848H412.702V308.953Z" fill="#3F3D56"/>
<path d="M412.702 321.365H404.427V328.26H412.702V321.365Z" fill="#3F3D56"/>
<path d="M81.966 180.01L75.071 174.493L113.685 140.016H211.599V170.356L148.162 213.108L81.966 180.01Z" fill="#3F3D56"/>
<path d="M229.451 159.356V140.705H216.451V145.273L211.599 140.016L179.88 174.493L167.469 182.768L148.224 323.371L177.247 352.394H244.697C255.032 300.406 263.227 246.999 244.697 175.872L229.451 159.356Z" fill="#CCCCCC"/>
<path d="M75.0704 174.493H179.88V352.394H75.0704C63.6013 283.281 57.9999 219.188 75.0704 174.493Z" fill="#F2F2F2"/>
<path d="M135.06 308.953H115.753V352.394H135.06V308.953Z" fill="#CCCCCC"/>
<path d="M95.067 321.365V314.47H86.793V321.365H94.378H95.067Z" fill="#3F3D56"/>
<path d="M94.378 326.881H86.793V333.777H95.067V326.881H94.378Z" fill="#3F3D56"/>
<path d="M108.858 314.469H100.583V321.365H108.858V314.469Z" fill="#3F3D56"/>
<path d="M150.92 326.881H143.335V333.777H151.609V326.881H150.92Z" fill="#3F3D56"/>
<path d="M165.4 314.469H157.125V321.365H165.4V314.469Z" fill="#3F3D56"/>
<path d="M165.4 326.881H157.125V333.776H165.4V326.881Z" fill="#3F3D56"/>
<path d="M209.53 183.457V176.562H201.256V183.457H208.841H209.53Z" fill="#3F3D56"/>
<path d="M208.841 188.974H201.256V195.869H209.53V188.974H208.841Z" fill="#3F3D56"/>
<path d="M223.321 176.562H215.047V183.457H223.321V176.562Z" fill="#3F3D56"/>
<path d="M223.321 188.973H215.047V195.869H223.321V188.973Z" fill="#3F3D56"/>
<path d="M209.53 222.072V215.176H201.256V222.072H208.841H209.53Z" fill="#3F3D56"/>
<path d="M208.841 227.588H201.256V234.483H209.53V227.588H208.841Z" fill="#3F3D56"/>
<path d="M223.321 215.176H215.047V222.071H223.321V215.176Z" fill="#3F3D56"/>
<path d="M223.321 227.587H215.047V234.483H223.321V227.587Z" fill="#3F3D56"/>
<path d="M209.53 260.686V253.79H201.256V260.686H208.841H209.53Z" fill="#3F3D56"/>
<path d="M208.841 266.202H201.256V273.097H209.53V266.202H208.841Z" fill="#3F3D56"/>
<path d="M223.321 253.79H215.047V260.685H223.321V253.79Z" fill="#3F3D56"/>
<path d="M223.321 266.202H215.047V273.097H223.321V266.202Z" fill="#3F3D56"/>
<path d="M209.53 299.3V292.404H201.256V299.3H208.841H209.53Z" fill="#3F3D56"/>
<path d="M208.841 304.816H201.256V311.711H209.53V304.816H208.841Z" fill="#3F3D56"/>
<path d="M223.321 292.404H215.047V299.299H223.321V292.404Z" fill="#3F3D56"/>
<path d="M223.321 304.816H215.047V311.711H223.321V304.816Z" fill="#3F3D56"/>
<path d="M86.7926 183.457H166.779V200.006C141.141 192.93 114.405 193.438 86.7926 200.006V183.457Z" fill="#3F3D56"/>
<path d="M86.7926 216.555C111.757 223.91 138.419 223.91 166.779 216.555V233.104H86.7926V216.555Z" fill="#3F3D56"/>
<path d="M86.7926 249.653H166.779V266.202C139.52 257.497 112.83 257.087 86.7926 266.202V249.653Z" fill="#3F3D56"/>
<path d="M86.7926 282.75C112.879 292.804 139.565 292.386 166.779 282.75V299.299H86.7926V282.75Z" fill="#3F3D56"/>
<path d="M516.68 254H572.88V281.08L567.86 282.65L551.16 287.863L524.96 281.793L498.79 275.729L484.97 272.527L478.07 269.975C483.81 262.098 494.25 255.904 516.68 254Z" fill="#3F3D56"/>
<path d="M572.88 269.974V352.395H478.07C478.04 352.344 478.02 352.298 477.99 352.247V352.242C477.967 352.185 477.941 352.129 477.91 352.076C476.43 349.097 475.103 346.125 473.93 343.162C463.98 318.083 465.06 293.668 478.07 269.974H572.88Z" fill="#F2F2F2"/>
<path d="M538.06 308.953H518.753V352.394H538.06V308.953Z" fill="#CCCCCC"/>
<path d="M498.067 321.365V314.47H489.793V321.365H497.378H498.067Z" fill="#3F3D56"/>
<path d="M497.378 326.881H489.793V333.777H498.067V326.881H497.378Z" fill="#3F3D56"/>
<path d="M511.858 314.469H503.583V321.365H511.858V314.469Z" fill="#3F3D56"/>
<path d="M511.858 326.881H503.583V333.776H511.858V326.881Z" fill="#3F3D56"/>
<path d="M554.609 321.365V314.47H546.335V321.365H553.92H554.609Z" fill="#3F3D56"/>
<path d="M553.92 326.881H546.335V333.777H554.609V326.881H553.92Z" fill="#3F3D56"/>
<path d="M568.4 314.469H560.125V321.365H568.4V314.469Z" fill="#3F3D56"/>
<path d="M568.4 326.881H560.125V333.776H568.4V326.881Z" fill="#3F3D56"/>
<path d="M498.793 222H510.678C522.401 222 533.644 226.657 541.934 234.946C550.223 243.236 554.88 254.479 554.88 266.202V266.202H498.793V222Z" fill="#3F3D56"/>
<path d="M138.793 102H150.678C162.401 102 173.644 106.657 181.934 114.946C190.223 123.236 194.88 134.479 194.88 146.202V146.202H138.793V102Z" fill="#3F3D56"/>
<path d="M328.793 213H340.678C352.401 213 363.644 217.657 371.934 225.946C380.223 234.236 384.88 245.479 384.88 257.202V257.202H328.793V213Z" fill="#3F3D56"/>
<path d="M554.88 282.751H498.793V299.299H554.88V282.751Z" fill="#3F3D56"/>
<path d="M573 352H34V354H573V352Z" fill="#3F3D56"/>
<path d="M55.4509 272.705H53.4509V351.705H55.4509V272.705Z" fill="#3F3D56"/>
<path d="M73.9086 282.773C74.0359 310.397 54.6007 332.881 54.6007 332.881C54.6007 332.881 29.7114 310.099 34.8318 282.953C39.9814 255.652 56.0308 232.961 54.1397 232.845C54.1397 232.845 73.7813 255.149 73.9086 282.773Z" fill="#514644"/>
<path d="M255.451 272.705H253.451V351.705H255.451V272.705Z" fill="#3F3D56"/>
<path d="M273.909 282.773C275.711 310.339 254.601 332.881 254.601 332.881C254.601 332.881 234.959 310.577 234.832 282.953C234.705 255.329 254.14 232.845 254.14 232.845C252.245 240.417 272.45 260.469 273.909 282.773Z" fill="#514644"/>
<path d="M125.513 144.289L212.387 140.039L248.83 170.458L242.387 176.275L184.678 174.976L125.513 144.289Z" fill="#3F3D56"/>
<path d="M315.513 259.289L402.387 255.039L438.83 285.458L432.387 291.275L374.678 289.976L315.513 259.289Z" fill="#3F3D56"/>
</g>
<defs>
<clipPath id="clip0_0_1">
<rect width="572.88" height="361.347" fill="white"/>
</clipPath>
</defs>
</svg>
